[2026-03-14 19:21:21] [INFO] Jarvis Desktop launcher started.
[2026-03-14 19:21:21] [INFO] Runtime log path: C:\Jarvis\logs\runtime_2026-03-14_19-21-21.txt
[2026-03-14 19:21:21] [INFO] Launcher executable: C:\Users\anden\AppData\Local\Python\pythoncore-3.14-64\pythonw.exe
[2026-03-14 19:21:21] [INFO] Root directory: C:\Jarvis
[2026-03-14 19:21:21] [INFO] Target script: C:\Jarvis\jarvis_desktop_test.py
[2026-03-14 19:21:21] [INFO] Diagnostics script: C:\Jarvis\desktop\jarvis_diagnostics.pyw
[2026-03-14 19:21:21] [INFO] Recovery attempts allowed: 3
[2026-03-14 19:21:21] [INFO] Voice hook ready: C:\Jarvis\jarvis_voice.py
[2026-03-14 19:21:21] [INFO] Starting desktop renderer process. attempt=1
[2026-03-14 19:21:21] [INFO] Child executable: C:\Users\anden\AppData\Local\Python\pythoncore-3.14-64\pythonw.exe
[2026-03-14 19:21:21] [STDOUT] Jarvis Desktop Concept 1 - Version 1.02
[2026-03-14 19:21:21] [STDOUT] Hotkey: Ctrl + Alt + End
[2026-03-14 19:21:21] [STDERR] Traceback (most recent call last):
[2026-03-14 19:21:21] [STDERR]   File "C:\Jarvis\jarvis_desktop_test.py", line 44, in <module>
[2026-03-14 19:21:21] [STDERR]     raise SystemExit(main())
[2026-03-14 19:21:21] [STDERR]                      ~~~~^^
[2026-03-14 19:21:21] [STDERR]   File "C:\Jarvis\jarvis_desktop_test.py", line 36, in main
[2026-03-14 19:21:21] [STDERR]     raise RuntimeError("Jarvis test crash triggered intentionally")
[2026-03-14 19:21:21] [STDERR] RuntimeError: Jarvis test crash triggered intentionally
[2026-03-14 19:21:21] [INFO] Desktop renderer exited. exit_code=1
[2026-03-14 19:21:21] [WARN] Recovery attempt 1/3
[2026-03-14 19:21:22] [INFO] Starting desktop renderer process. attempt=2
[2026-03-14 19:21:22] [INFO] Child executable: C:\Users\anden\AppData\Local\Python\pythoncore-3.14-64\pythonw.exe
[2026-03-14 19:21:23] [STDOUT] Jarvis Desktop Concept 1 - Version 1.02
[2026-03-14 19:21:23] [STDOUT] Hotkey: Ctrl + Alt + End
[2026-03-14 19:21:23] [STDERR] Traceback (most recent call last):
[2026-03-14 19:21:23] [STDERR]   File "C:\Jarvis\jarvis_desktop_test.py", line 44, in <module>
[2026-03-14 19:21:23] [STDERR]     raise SystemExit(main())
[2026-03-14 19:21:23] [STDERR]                      ~~~~^^
[2026-03-14 19:21:23] [STDERR]   File "C:\Jarvis\jarvis_desktop_test.py", line 36, in main
[2026-03-14 19:21:23] [STDERR]     raise RuntimeError("Jarvis test crash triggered intentionally")
[2026-03-14 19:21:23] [STDERR] RuntimeError: Jarvis test crash triggered intentionally
[2026-03-14 19:21:23] [INFO] Desktop renderer exited. exit_code=1
[2026-03-14 19:21:23] [WARN] Recovery attempt 2/3
[2026-03-14 19:21:24] [INFO] Starting desktop renderer process. attempt=3
[2026-03-14 19:21:24] [INFO] Child executable: C:\Users\anden\AppData\Local\Python\pythoncore-3.14-64\pythonw.exe
[2026-03-14 19:21:24] [STDOUT] Jarvis Desktop Concept 1 - Version 1.02
[2026-03-14 19:21:24] [STDOUT] Hotkey: Ctrl + Alt + End
[2026-03-14 19:21:24] [STDERR] Traceback (most recent call last):
[2026-03-14 19:21:24] [STDERR]   File "C:\Jarvis\jarvis_desktop_test.py", line 44, in <module>
[2026-03-14 19:21:24] [STDERR]     raise SystemExit(main())
[2026-03-14 19:21:24] [STDERR]                      ~~~~^^
[2026-03-14 19:21:24] [STDERR]   File "C:\Jarvis\jarvis_desktop_test.py", line 36, in main
[2026-03-14 19:21:24] [STDERR]     raise RuntimeError("Jarvis test crash triggered intentionally")
[2026-03-14 19:21:24] [STDERR] RuntimeError: Jarvis test crash triggered intentionally
[2026-03-14 19:21:24] [INFO] Desktop renderer exited. exit_code=1
[2026-03-14 19:21:24] [ERROR] Crash log written: C:\Jarvis\logs\crash\crash_2026-03-14_19-21-24.txt
[2026-03-14 19:21:24] [INFO] Trying voice line 'Um..... Sir, I seem to be malfunctioning.' using voice --text --mode
[2026-03-14 19:21:30] [VOICE_STDERR] [mp3 @ 000001FFA1CD2380] Estimating duration from bitrate, this may be inaccurate
[2026-03-14 19:21:30] [VOICE_STDERR] Input #0, mp3, from 'C:/Users/anden/AppData/Local/Temp/tmp6xmtvknw.mp3':
[2026-03-14 19:21:30] [VOICE_STDERR]   Duration: 00:00:04.20, start: 0.000000, bitrate: 48 kb/s
[2026-03-14 19:21:30] [VOICE_STDERR]   Stream #0:0: Audio: mp3 (mp3float), 24000 Hz, mono, fltp, 48 kb/s
[2026-03-14 19:21:30] [INFO] Voice line completed: Um..... Sir, I seem to be malfunctioning.
[2026-03-14 19:21:30] [INFO] Failure voice step 1/3 success=True line=Um..... Sir, I seem to be malfunctioning.
[2026-03-14 19:21:31] [INFO] Trying voice line 'Attempting restart.' using voice --text --mode
[2026-03-14 19:21:34] [VOICE_STDERR] [mp3 @ 000002E30DB24000] Estimating duration from bitrate, this may be inaccurate
[2026-03-14 19:21:34] [VOICE_STDERR] Input #0, mp3, from 'C:/Users/anden/AppData/Local/Temp/tmpgjwfflf2.mp3':
[2026-03-14 19:21:34] [VOICE_STDERR]   Duration: 00:00:02.18, start: 0.000000, bitrate: 48 kb/s
[2026-03-14 19:21:34] [VOICE_STDERR]   Stream #0:0: Audio: mp3 (mp3float), 24000 Hz, mono, fltp, 48 kb/s
[2026-03-14 19:21:34] [INFO] Voice line completed: Attempting restart.
[2026-03-14 19:21:34] [INFO] Failure voice step 2/3 success=True line=Attempting restart.
[2026-03-14 19:21:35] [INFO] Trying voice line 'Restart failed.' using voice --text --mode
[2026-03-14 19:21:38] [VOICE_STDERR] [mp3 @ 0000024E2A66D100] Estimating duration from bitrate, this may be inaccurate
[2026-03-14 19:21:38] [VOICE_STDERR] Input #0, mp3, from 'C:/Users/anden/AppData/Local/Temp/tmpdv8ezr0y.mp3':
[2026-03-14 19:21:38] [VOICE_STDERR]   Duration: 00:00:02.11, start: 0.000000, bitrate: 48 kb/s
[2026-03-14 19:21:38] [VOICE_STDERR]   Stream #0:0: Audio: mp3 (mp3float), 24000 Hz, mono, fltp, 48 kb/s
[2026-03-14 19:21:38] [INFO] Voice line completed: Restart failed.
[2026-03-14 19:21:38] [INFO] Failure voice step 3/3 success=True line=Restart failed.
[2026-03-14 19:21:39] [INFO] Diagnostics process launched.
